<svg width="12" height="32" viewBox="0 0 12 32" fill="none" class="text-text" xmlns="http://www.w3.org/2000/svg">
<path d="M11.6478 10.2209C11.6007 10.375 11.5481 10.5237 11.4872 10.6685C11.2218 11.3105 10.8385 11.9007 10.3558 12.4106C10.1958 12.5791 10.0261 12.7388 9.84759 12.889C9.82206 13.5417 9.66593 14.1834 9.38785 14.7785C9.10189 15.388 8.63473 15.9012 8.046 16.2526C7.42317 16.5892 6.72167 16.7659 6.00831 16.7659C5.29494 16.7659 4.59344 16.5892 3.97061 16.2526C3.38118 15.8997 2.91172 15.3872 2.62046 14.7785C2.33743 14.1847 2.17882 13.5425 2.15379 12.889C1.97444 12.7407 1.80515 12.5813 1.64696 12.4119C1.16259 11.9031 0.77867 11.3126 0.514221 10.6698C0.454676 10.5278 0.402055 10.3817 0.356357 10.2343C0.111685 10.9632 -0.00852253 11.7259 0.00046958 12.4923C0.00046958 13.7064 0.255729 14.7709 0.766249 15.6858C1.2499 16.5783 1.9831 17.3213 2.88218 17.8299C3.82758 18.3533 4.90202 18.6187 5.991 18.5978C7.09426 18.6208 8.18353 18.3555 9.14412 17.8299C10.0446 17.3255 10.7762 16.5813 11.2517 15.6858C11.7503 14.7691 11.9995 13.7047 11.9995 12.4923C12.0085 11.7218 11.8898 10.955 11.6478 10.2209Z" fill="currentColor" />
<path d="M11.7835 8.64225C11.5274 9.84641 10.8769 10.9385 9.92851 11.7565C8.98011 12.5744 7.7844 13.0746 6.51893 13.1826C5.25347 13.2907 3.98574 13.0009 2.90399 12.3563C1.82224 11.7116 0.984165 10.7466 0.514208 9.60443C0.38529 9.29313 0.286095 8.97106 0.217867 8.64225C0.213841 8.62221 0.214365 8.60157 0.219405 8.58176C0.224445 8.56194 0.233879 8.54342 0.247053 8.52748C0.260227 8.51155 0.276827 8.49858 0.295699 8.48947C0.314571 8.48036 0.335264 8.47533 0.356344 8.47474H11.6353C11.6571 8.47419 11.6788 8.47837 11.6988 8.48695C11.7187 8.49554 11.7364 8.50832 11.7506 8.52437C11.7648 8.54041 11.7751 8.55932 11.7808 8.57971C11.7865 8.6001 11.7874 8.62147 11.7835 8.64225Z" fill="currentColor" />
<path d="M11.8154 2.48319V7.59563C11.8154 7.66671 11.7862 7.73488 11.7342 7.78515C11.6823 7.83541 11.6119 7.86365 11.5384 7.86365H0.460225C0.386772 7.86365 0.316328 7.83541 0.264389 7.78515C0.21245 7.73488 0.183271 7.66671 0.183271 7.59563V2.46442C0.183933 2.35456 0.220265 2.24768 0.287129 2.15888C0.670711 1.64563 2.18288 0 5.84422 0C9.50556 0 11.2227 1.62553 11.6838 2.14414C11.7683 2.23819 11.815 2.35855 11.8154 2.48319Z" fill="currentColor" />
<path d="M9.56926 20.1536L6.01178 23.1916L2.37121 20.1536H0.079409V32H2.01809L2.05132 23.197L5.25569 25.2754H6.77201L9.97499 23.1795L9.94176 32H11.8804V20.1536H9.56926Z" fill="currentColor" />
<path d="M3.22281 26.4025H8.44894L8.6931 27.0926H3.19927L3.22281 26.4025Z" fill="currentColor" />
<path d="M3.52198 28.4206H8.20528L8.42098 29.1108H3.49982L3.52198 28.4206Z" fill="currentColor" />
<path d="M3.98722 30.4388H8.03768L8.05568 31.1276H3.96922L3.98722 30.4388Z" fill="currentColor" />
<path d="M3.82245 27.1382C3.82555 27.1873 3.81823 27.2364 3.80094 27.2827C3.78366 27.329 3.75678 27.3713 3.72195 27.4071C3.68712 27.443 3.64508 27.4715 3.59842 27.491C3.55176 27.5105 3.50147 27.5206 3.45064 27.5206C3.39981 27.5206 3.34951 27.5105 3.30286 27.491C3.2562 27.4715 3.21416 27.443 3.17933 27.4071C3.1445 27.3713 3.11762 27.329 3.10033 27.2827C3.08305 27.2364 3.07573 27.1873 3.07883 27.1382C2.97772 27.13 2.88346 27.0854 2.81475 27.0132C2.74605 26.941 2.70791 26.8464 2.70791 26.7482C2.70791 26.65 2.74605 26.5554 2.81475 26.4832C2.88346 26.4109 2.97772 26.3663 3.07883 26.3582C3.08448 26.2884 3.11103 26.2217 3.15525 26.1662C3.19946 26.1107 3.25941 26.0689 3.32778 26.0459C3.39615 26.0229 3.46996 26.0196 3.5402 26.0366C3.61044 26.0535 3.67407 26.0899 3.7233 26.1412C3.77252 26.1926 3.80522 26.2567 3.81739 26.3258C3.82957 26.3948 3.82068 26.4658 3.79183 26.53C3.76298 26.5943 3.71541 26.649 3.65494 26.6875C3.59447 26.726 3.52372 26.7466 3.45133 26.7468C3.55407 26.7514 3.65078 26.7951 3.72032 26.8684C3.78987 26.9417 3.82658 27.0387 3.82245 27.1382Z" fill="currentColor" />
<path d="M3.9692 29.155C3.9723 29.2041 3.96498 29.2533 3.94769 29.2995C3.93041 29.3458 3.90352 29.3881 3.86869 29.424C3.83386 29.4598 3.79183 29.4883 3.74517 29.5079C3.69851 29.5274 3.64822 29.5374 3.59739 29.5374C3.54656 29.5374 3.49627 29.5274 3.44961 29.5079C3.40295 29.4883 3.36091 29.4598 3.32608 29.424C3.29125 29.3881 3.26437 29.3458 3.24708 29.2995C3.2298 29.2533 3.22248 29.2041 3.22558 29.155C3.12447 29.1469 3.03021 29.1023 2.9615 29.03C2.89279 28.9578 2.85466 28.8632 2.85466 28.765C2.85466 28.6668 2.89279 28.5722 2.9615 28.5C3.03021 28.4278 3.12447 28.3832 3.22558 28.3751C3.23149 28.3053 3.25826 28.2387 3.30262 28.1834C3.34698 28.1282 3.407 28.0866 3.47538 28.0637C3.54375 28.0409 3.6175 28.0379 3.68764 28.0549C3.75778 28.072 3.82127 28.1084 3.87037 28.1598C3.91946 28.2112 3.95203 28.2753 3.96411 28.3444C3.97618 28.4134 3.96724 28.4843 3.93836 28.5484C3.90949 28.6126 3.86194 28.6673 3.80152 28.7057C3.74109 28.7442 3.6704 28.7648 3.59808 28.765C3.70057 28.7695 3.79707 28.8131 3.86657 28.8861C3.93607 28.9591 3.97296 29.0558 3.9692 29.155Z" fill="currentColor" />
<path d="M4.46084 31.1732C4.46529 31.2231 4.45897 31.2734 4.44227 31.3209C4.42558 31.3683 4.39887 31.4119 4.36385 31.4489C4.32882 31.4858 4.28624 31.5153 4.23882 31.5355C4.19139 31.5557 4.14014 31.5661 4.08833 31.5661C4.03652 31.5661 3.98528 31.5557 3.93785 31.5355C3.89042 31.5153 3.84785 31.4858 3.81282 31.4489C3.7778 31.4119 3.75109 31.3683 3.73439 31.3209C3.7177 31.2734 3.71138 31.2231 3.71583 31.1732C3.61472 31.165 3.52047 31.1204 3.45176 31.0482C3.38305 30.976 3.34491 30.8814 3.34491 30.7832C3.34491 30.685 3.38305 30.5904 3.45176 30.5182C3.52047 30.4459 3.61472 30.4013 3.71583 30.3932C3.72149 30.3231 3.74816 30.256 3.79259 30.2003C3.83702 30.1446 3.89727 30.1026 3.96597 30.0795C4.03466 30.0565 4.10883 30.0533 4.17937 30.0704C4.24991 30.0875 4.31378 30.1241 4.36314 30.1758C4.4125 30.2274 4.44522 30.2919 4.45729 30.3613C4.46936 30.4307 4.46025 30.502 4.43109 30.5665C4.40192 30.6309 4.35397 30.6858 4.29309 30.7243C4.23221 30.7628 4.16105 30.7832 4.08833 30.7832C4.19107 30.7874 4.28792 30.8307 4.35771 30.9038C4.42751 30.9769 4.46459 31.0737 4.46084 31.1732Z" fill="currentColor" />
<path d="M8.13459 27.1382C8.1315 27.1873 8.13881 27.2364 8.1561 27.2827C8.17338 27.329 8.20027 27.3713 8.2351 27.4071C8.26993 27.443 8.31197 27.4715 8.35863 27.491C8.40528 27.5105 8.45558 27.5206 8.50641 27.5206C8.55724 27.5206 8.60753 27.5105 8.65419 27.491C8.70085 27.4715 8.74288 27.443 8.77771 27.4071C8.81254 27.3713 8.83943 27.329 8.85671 27.2827C8.874 27.2364 8.88132 27.1873 8.87822 27.1382C8.97932 27.13 9.07358 27.0854 9.14229 27.0132C9.211 26.941 9.24914 26.8464 9.24914 26.7482C9.24914 26.65 9.211 26.5554 9.14229 26.4832C9.07358 26.4109 8.97932 26.3663 8.87822 26.3582C8.87257 26.2884 8.84601 26.2217 8.8018 26.1662C8.75759 26.1107 8.69763 26.0689 8.62926 26.0459C8.5609 26.0229 8.48708 26.0196 8.41684 26.0366C8.3466 26.0535 8.28298 26.0899 8.23375 26.1412C8.18452 26.1926 8.15182 26.2567 8.13965 26.3258C8.12748 26.3948 8.13636 26.4658 8.16521 26.53C8.19406 26.5943 8.24163 26.649 8.3021 26.6875C8.36257 26.726 8.43333 26.7466 8.50571 26.7468C8.40297 26.7514 8.30626 26.7951 8.23672 26.8684C8.16718 26.9417 8.13046 27.0387 8.13459 27.1382Z" fill="currentColor" />
<path d="M7.91307 29.155C7.90861 29.2049 7.91494 29.2552 7.93163 29.3027C7.94833 29.3502 7.97504 29.3937 8.01006 29.4307C8.04509 29.4676 8.08766 29.4971 8.13509 29.5173C8.18252 29.5375 8.23376 29.5479 8.28557 29.5479C8.33738 29.5479 8.38863 29.5375 8.43606 29.5173C8.48348 29.4971 8.52606 29.4676 8.56108 29.4307C8.59611 29.3937 8.62282 29.3502 8.63951 29.3027C8.65621 29.2552 8.66253 29.2049 8.65808 29.155C8.75918 29.1469 8.85344 29.1023 8.92215 29.03C8.99086 28.9578 9.029 28.8632 9.029 28.765C9.029 28.6668 8.99086 28.5722 8.92215 28.5C8.85344 28.4278 8.75918 28.3832 8.65808 28.375C8.65242 28.3049 8.62575 28.2378 8.58132 28.1821C8.53689 28.1264 8.47664 28.0845 8.40794 28.0614C8.33924 28.0383 8.26508 28.0351 8.19454 28.0522C8.12399 28.0693 8.06013 28.1059 8.01077 28.1576C7.96141 28.2093 7.92869 28.2737 7.91662 28.3431C7.90455 28.4125 7.91365 28.4838 7.94282 28.5483C7.97198 28.6128 8.01994 28.6676 8.08082 28.7061C8.1417 28.7446 8.21285 28.7651 8.28557 28.765C8.18284 28.7692 8.08599 28.8126 8.01619 28.8856C7.94639 28.9587 7.90932 29.0555 7.91307 29.155Z" fill="currentColor" />
<path d="M7.4173 31.1732C7.4142 31.2223 7.42152 31.2714 7.43881 31.3177C7.45609 31.364 7.48297 31.4063 7.5178 31.4421C7.55263 31.478 7.59467 31.5065 7.64133 31.526C7.68799 31.5455 7.73828 31.5556 7.78911 31.5556C7.83994 31.5556 7.89023 31.5455 7.93689 31.526C7.98355 31.5065 8.02559 31.478 8.06042 31.4421C8.09525 31.4063 8.12213 31.364 8.13942 31.3177C8.1567 31.2714 8.16402 31.2223 8.16092 31.1732C8.26203 31.165 8.35629 31.1204 8.425 31.0482C8.4937 30.976 8.53184 30.8814 8.53184 30.7832C8.53184 30.685 8.4937 30.5904 8.425 30.5182C8.35629 30.4459 8.26203 30.4013 8.16092 30.3932C8.15501 30.3235 8.12824 30.2569 8.08388 30.2016C8.03952 30.1463 7.97949 30.1047 7.91112 30.0819C7.84275 30.0591 7.769 30.056 7.69886 30.0731C7.62872 30.0902 7.56522 30.1266 7.51613 30.178C7.46704 30.2294 7.43447 30.2935 7.42239 30.3625C7.41032 30.4315 7.41926 30.5024 7.44813 30.5666C7.47701 30.6308 7.52456 30.6854 7.58498 30.7239C7.64541 30.7624 7.7161 30.783 7.78842 30.7832C7.68593 30.7877 7.58943 30.8312 7.51993 30.9043C7.45043 30.9773 7.41354 31.0739 7.4173 31.1732Z" fill="currentColor" />
</svg>
