<svg
                        width="32"
                        height="32"
                        viewBox="0 0 32 32"
                        fill="none"
                        xmlns="http://www.w3.org/2000/svg"
                        class="text-text"
                    >
                        <path
                            d="M28 8C30.2091 8 32 6.20914 32 4C32 1.79086 30.2091 0 28 0H10.8167C9.67461 0 9.10359 0 8.57109 0.150179C8.26838 0.235553 7.97679 0.356333 7.70237 0.510016C7.21965 0.780354 6.81587 1.18413 6.00833 1.99167L4.80833 3.19167C2.95659 5.04341 2.03073 5.96927 1.76737 7.06622C1.62001 7.68002 1.62001 8.31998 1.76737 8.93378C2.03073 10.0307 2.95659 10.9566 4.80832 12.8083L7.17157 15.1716C7.70201 15.702 8.42143 16 9.17157 16H16L20 20C21.4761 21.4761 20.4307 24 18.3431 24H4C1.79086 24 0 25.7909 0 28C0 30.2091 1.79086 32 4 32H21.1833C22.3254 32 22.8964 32 23.4289 31.8498C23.7316 31.7644 24.0232 31.6437 24.2976 31.49C24.7804 31.2196 25.1841 30.8159 25.9917 30.0083L27.1917 28.8083C29.0434 26.9566 29.9693 26.0307 30.2326 24.9338C30.38 24.32 30.38 23.68 30.2326 23.0662C29.9693 21.9693 29.0434 21.0434 27.1917 19.1917L24.8284 16.8284C24.298 16.298 23.5786 16 22.8284 16H16L12 12C10.5239 10.5239 11.5693 8 13.6569 8H28Z"
                            fill="currentColor"></path>
                    </svg>
